<mxfile host="app.diagrams.net" modified="2023-04-03T16:44:10.660Z" agent="Mozilla/5.0 (Windows NT 6.1) AppleWebKit/537.36 (KHTML, like Gecko) Chrome/105.0.0.0 Safari/537.36" etag="pRr9Gic5H4TOjTZ76Bwq" version="21.1.4" type="github">
  <diagram name="PÃ¡gina-1" id="AghEj03QkTi664Gbf3Q0">
    <mxGraphModel dx="874" dy="452" grid="1" gridSize="10" guides="1" tooltips="1" connect="1" arrows="1" fold="1" page="1" pageScale="1" pageWidth="827" pageHeight="1169" math="0" shadow="0">
      <root>
        <mxCell id="0" />
        <mxCell id="1" parent="0" />
        <mxCell id="u9Vryoz38K2hmvbxUxs4-1" value="Jogador" style="whiteSpace=wrap;html=1;align=center;labelBackgroundColor=none;fillColor=#FAE5C7;strokeColor=#0F8B8D;fontColor=#143642;" vertex="1" parent="1">
          <mxGeometry x="610" y="20" width="120" height="50" as="geometry" />
        </mxCell>
        <mxCell id="u9Vryoz38K2hmvbxUxs4-2" value="d" style="ellipse;whiteSpace=wrap;html=1;align=center;labelBackgroundColor=none;fillColor=#FAE5C7;strokeColor=#0F8B8D;fontColor=#143642;" vertex="1" parent="1">
          <mxGeometry x="490" y="130" width="30" height="20" as="geometry" />
        </mxCell>
        <mxCell id="u9Vryoz38K2hmvbxUxs4-3" value="" style="endArrow=none;html=1;rounded=0;entryX=0.417;entryY=1.04;entryDx=0;entryDy=0;entryPerimeter=0;labelBackgroundColor=none;strokeColor=#A8201A;fontColor=default;" edge="1" parent="1" target="u9Vryoz38K2hmvbxUxs4-1">
          <mxGeometry relative="1" as="geometry">
            <mxPoint x="660" y="110" as="sourcePoint" />
            <mxPoint x="662" y="70" as="targetPoint" />
          </mxGeometry>
        </mxCell>
        <mxCell id="u9Vryoz38K2hmvbxUxs4-4" value="" style="endArrow=none;html=1;rounded=0;labelBackgroundColor=none;strokeColor=#A8201A;fontColor=default;" edge="1" parent="1">
          <mxGeometry relative="1" as="geometry">
            <mxPoint x="500" y="110" as="sourcePoint" />
            <mxPoint x="660" y="110" as="targetPoint" />
          </mxGeometry>
        </mxCell>
        <mxCell id="u9Vryoz38K2hmvbxUxs4-5" value="" style="endArrow=none;html=1;rounded=0;entryX=0.5;entryY=1;entryDx=0;entryDy=0;labelBackgroundColor=none;strokeColor=#A8201A;fontColor=default;" edge="1" parent="1" target="u9Vryoz38K2hmvbxUxs4-1">
          <mxGeometry relative="1" as="geometry">
            <mxPoint x="670" y="120" as="sourcePoint" />
            <mxPoint x="780" y="160" as="targetPoint" />
          </mxGeometry>
        </mxCell>
        <mxCell id="u9Vryoz38K2hmvbxUxs4-6" value="" style="endArrow=none;html=1;rounded=0;labelBackgroundColor=none;strokeColor=#A8201A;fontColor=default;" edge="1" parent="1">
          <mxGeometry relative="1" as="geometry">
            <mxPoint x="510" y="120" as="sourcePoint" />
            <mxPoint x="670" y="120" as="targetPoint" />
          </mxGeometry>
        </mxCell>
        <mxCell id="u9Vryoz38K2hmvbxUxs4-8" value="" style="endArrow=none;html=1;rounded=0;entryX=0;entryY=0;entryDx=0;entryDy=0;labelBackgroundColor=none;strokeColor=#A8201A;fontColor=default;" edge="1" parent="1" target="u9Vryoz38K2hmvbxUxs4-2">
          <mxGeometry relative="1" as="geometry">
            <mxPoint x="500" y="110" as="sourcePoint" />
            <mxPoint x="570" y="110" as="targetPoint" />
            <Array as="points">
              <mxPoint x="500" y="130" />
            </Array>
          </mxGeometry>
        </mxCell>
        <mxCell id="u9Vryoz38K2hmvbxUxs4-9" value="" style="endArrow=none;html=1;rounded=0;labelBackgroundColor=none;strokeColor=#A8201A;fontColor=default;" edge="1" parent="1">
          <mxGeometry relative="1" as="geometry">
            <mxPoint x="510" y="120" as="sourcePoint" />
            <mxPoint x="510" y="130" as="targetPoint" />
          </mxGeometry>
        </mxCell>
        <mxCell id="u9Vryoz38K2hmvbxUxs4-11" value="Sexo Feminino" style="rounded=1;arcSize=10;whiteSpace=wrap;html=1;align=center;labelBackgroundColor=none;fillColor=#FAE5C7;strokeColor=#0F8B8D;fontColor=#143642;" vertex="1" parent="1">
          <mxGeometry x="350" y="190" width="106" height="30" as="geometry" />
        </mxCell>
        <mxCell id="u9Vryoz38K2hmvbxUxs4-12" value="Sexo Masculino" style="whiteSpace=wrap;html=1;align=center;labelBackgroundColor=none;fillColor=#FAE5C7;strokeColor=#0F8B8D;fontColor=#143642;" vertex="1" parent="1">
          <mxGeometry x="540" y="190" width="100" height="30" as="geometry" />
        </mxCell>
        <mxCell id="u9Vryoz38K2hmvbxUxs4-13" value="" style="endArrow=none;html=1;rounded=0;exitX=0.566;exitY=0;exitDx=0;exitDy=0;exitPerimeter=0;labelBackgroundColor=none;strokeColor=#A8201A;fontColor=default;" edge="1" parent="1" source="u9Vryoz38K2hmvbxUxs4-11">
          <mxGeometry relative="1" as="geometry">
            <mxPoint x="330" y="150" as="sourcePoint" />
            <mxPoint x="590" y="170" as="targetPoint" />
            <Array as="points">
              <mxPoint x="410" y="170" />
              <mxPoint x="590" y="170" />
            </Array>
          </mxGeometry>
        </mxCell>
        <mxCell id="u9Vryoz38K2hmvbxUxs4-14" value="" style="endArrow=none;html=1;rounded=0;entryX=0.5;entryY=0;entryDx=0;entryDy=0;labelBackgroundColor=none;strokeColor=#A8201A;fontColor=default;" edge="1" parent="1" target="u9Vryoz38K2hmvbxUxs4-12">
          <mxGeometry relative="1" as="geometry">
            <mxPoint x="590" y="170" as="sourcePoint" />
            <mxPoint x="559.5" y="190" as="targetPoint" />
          </mxGeometry>
        </mxCell>
        <mxCell id="u9Vryoz38K2hmvbxUxs4-16" value="" style="endArrow=none;html=1;rounded=0;labelBackgroundColor=none;strokeColor=#A8201A;fontColor=default;" edge="1" parent="1">
          <mxGeometry relative="1" as="geometry">
            <mxPoint x="504.5" y="150" as="sourcePoint" />
            <mxPoint x="504.5" y="170" as="targetPoint" />
          </mxGeometry>
        </mxCell>
        <mxCell id="u9Vryoz38K2hmvbxUxs4-23" value="PartidaF" style="shape=rhombus;perimeter=rhombusPerimeter;whiteSpace=wrap;html=1;align=center;labelBackgroundColor=none;fillColor=#FAE5C7;strokeColor=#0F8B8D;fontColor=#143642;" vertex="1" parent="1">
          <mxGeometry x="350" y="260" width="104" height="40" as="geometry" />
        </mxCell>
        <mxCell id="u9Vryoz38K2hmvbxUxs4-24" value="PartidaM" style="shape=rhombus;perimeter=rhombusPerimeter;whiteSpace=wrap;html=1;align=center;labelBackgroundColor=none;fillColor=#FAE5C7;strokeColor=#0F8B8D;fontColor=#143642;" vertex="1" parent="1">
          <mxGeometry x="540" y="260" width="100" height="40" as="geometry" />
        </mxCell>
        <mxCell id="u9Vryoz38K2hmvbxUxs4-26" value="" style="endArrow=none;html=1;rounded=0;exitX=0;exitY=0;exitDx=0;exitDy=0;labelBackgroundColor=none;strokeColor=#A8201A;fontColor=default;" edge="1" parent="1" source="u9Vryoz38K2hmvbxUxs4-23">
          <mxGeometry relative="1" as="geometry">
            <mxPoint x="130" y="320" as="sourcePoint" />
            <mxPoint x="403" y="220" as="targetPoint" />
          </mxGeometry>
        </mxCell>
        <mxCell id="u9Vryoz38K2hmvbxUxs4-27" value="N" style="resizable=0;html=1;whiteSpace=wrap;align=right;verticalAlign=bottom;labelBackgroundColor=none;fillColor=#FAE5C7;strokeColor=#0F8B8D;fontColor=#143642;" connectable="0" vertex="1" parent="u9Vryoz38K2hmvbxUxs4-26">
          <mxGeometry x="1" relative="1" as="geometry">
            <mxPoint x="-33" y="30" as="offset" />
          </mxGeometry>
        </mxCell>
        <mxCell id="u9Vryoz38K2hmvbxUxs4-29" value="" style="endArrow=none;html=1;rounded=0;entryX=1;entryY=0;entryDx=0;entryDy=0;labelBackgroundColor=none;strokeColor=#A8201A;fontColor=default;" edge="1" parent="1" target="u9Vryoz38K2hmvbxUxs4-23">
          <mxGeometry relative="1" as="geometry">
            <mxPoint x="402" y="220" as="sourcePoint" />
            <mxPoint x="450" y="270" as="targetPoint" />
          </mxGeometry>
        </mxCell>
        <mxCell id="u9Vryoz38K2hmvbxUxs4-30" value="N" style="resizable=0;html=1;whiteSpace=wrap;align=right;verticalAlign=bottom;labelBackgroundColor=none;fillColor=#FAE5C7;strokeColor=#0F8B8D;fontColor=#143642;" connectable="0" vertex="1" parent="u9Vryoz38K2hmvbxUxs4-29">
          <mxGeometry x="1" relative="1" as="geometry">
            <mxPoint x="12" y="-20" as="offset" />
          </mxGeometry>
        </mxCell>
        <mxCell id="u9Vryoz38K2hmvbxUxs4-32" value="" style="endArrow=none;html=1;rounded=0;exitX=0;exitY=0;exitDx=0;exitDy=0;labelBackgroundColor=none;strokeColor=#A8201A;fontColor=default;" edge="1" parent="1" source="u9Vryoz38K2hmvbxUxs4-24">
          <mxGeometry relative="1" as="geometry">
            <mxPoint x="440" y="340" as="sourcePoint" />
            <mxPoint x="590" y="220" as="targetPoint" />
            <Array as="points">
              <mxPoint x="590" y="220" />
            </Array>
          </mxGeometry>
        </mxCell>
        <mxCell id="u9Vryoz38K2hmvbxUxs4-33" value="N" style="resizable=0;html=1;whiteSpace=wrap;align=right;verticalAlign=bottom;labelBackgroundColor=none;fillColor=#FAE5C7;strokeColor=#0F8B8D;fontColor=#143642;" connectable="0" vertex="1" parent="u9Vryoz38K2hmvbxUxs4-32">
          <mxGeometry x="1" relative="1" as="geometry">
            <mxPoint x="-14" y="28" as="offset" />
          </mxGeometry>
        </mxCell>
        <mxCell id="u9Vryoz38K2hmvbxUxs4-34" value="" style="endArrow=none;html=1;rounded=0;entryX=1;entryY=0;entryDx=0;entryDy=0;labelBackgroundColor=none;strokeColor=#A8201A;fontColor=default;" edge="1" parent="1" target="u9Vryoz38K2hmvbxUxs4-24">
          <mxGeometry relative="1" as="geometry">
            <mxPoint x="590" y="220" as="sourcePoint" />
            <mxPoint x="630" y="250" as="targetPoint" />
          </mxGeometry>
        </mxCell>
        <mxCell id="u9Vryoz38K2hmvbxUxs4-35" value="N" style="resizable=0;html=1;whiteSpace=wrap;align=right;verticalAlign=bottom;labelBackgroundColor=none;fillColor=#FAE5C7;strokeColor=#0F8B8D;fontColor=#143642;" connectable="0" vertex="1" parent="u9Vryoz38K2hmvbxUxs4-34">
          <mxGeometry x="1" relative="1" as="geometry">
            <mxPoint x="15" y="-20" as="offset" />
          </mxGeometry>
        </mxCell>
        <mxCell id="u9Vryoz38K2hmvbxUxs4-36" value="disponibilidade" style="shape=associativeEntity;whiteSpace=wrap;html=1;align=center;labelBackgroundColor=none;fillColor=#FAE5C7;strokeColor=#0F8B8D;fontColor=#143642;" vertex="1" parent="1">
          <mxGeometry x="435" y="360" width="125" height="40" as="geometry" />
        </mxCell>
        <mxCell id="u9Vryoz38K2hmvbxUxs4-37" value="" style="endArrow=none;html=1;rounded=0;entryX=0.36;entryY=0;entryDx=0;entryDy=0;entryPerimeter=0;exitX=0.606;exitY=0.925;exitDx=0;exitDy=0;exitPerimeter=0;labelBackgroundColor=none;strokeColor=#A8201A;fontColor=default;" edge="1" parent="1" source="u9Vryoz38K2hmvbxUxs4-23" target="u9Vryoz38K2hmvbxUxs4-36">
          <mxGeometry relative="1" as="geometry">
            <mxPoint x="420" y="310" as="sourcePoint" />
            <mxPoint x="580" y="310" as="targetPoint" />
          </mxGeometry>
        </mxCell>
        <mxCell id="u9Vryoz38K2hmvbxUxs4-38" value="N" style="resizable=0;html=1;whiteSpace=wrap;align=right;verticalAlign=bottom;labelBackgroundColor=none;fillColor=#FAE5C7;strokeColor=#0F8B8D;fontColor=#143642;" connectable="0" vertex="1" parent="u9Vryoz38K2hmvbxUxs4-37">
          <mxGeometry x="1" relative="1" as="geometry">
            <mxPoint x="-45" y="-10" as="offset" />
          </mxGeometry>
        </mxCell>
        <mxCell id="u9Vryoz38K2hmvbxUxs4-39" value="" style="endArrow=none;html=1;rounded=0;entryX=0.32;entryY=0.95;entryDx=0;entryDy=0;entryPerimeter=0;exitX=0.592;exitY=0.025;exitDx=0;exitDy=0;exitPerimeter=0;labelBackgroundColor=none;strokeColor=#A8201A;fontColor=default;" edge="1" parent="1" source="u9Vryoz38K2hmvbxUxs4-36" target="u9Vryoz38K2hmvbxUxs4-24">
          <mxGeometry relative="1" as="geometry">
            <mxPoint x="500" y="330" as="sourcePoint" />
            <mxPoint x="660" y="330" as="targetPoint" />
          </mxGeometry>
        </mxCell>
        <mxCell id="u9Vryoz38K2hmvbxUxs4-40" value="N" style="resizable=0;html=1;whiteSpace=wrap;align=right;verticalAlign=bottom;labelBackgroundColor=none;fillColor=#FAE5C7;strokeColor=#0F8B8D;fontColor=#143642;" connectable="0" vertex="1" parent="u9Vryoz38K2hmvbxUxs4-39">
          <mxGeometry x="1" relative="1" as="geometry">
            <mxPoint x="-12" y="52" as="offset" />
          </mxGeometry>
        </mxCell>
        <mxCell id="u9Vryoz38K2hmvbxUxs4-42" value="Torneio" style="whiteSpace=wrap;html=1;align=center;labelBackgroundColor=none;fillColor=#FAE5C7;strokeColor=#0F8B8D;fontColor=#143642;" vertex="1" parent="1">
          <mxGeometry x="750" y="360" width="100" height="40" as="geometry" />
        </mxCell>
        <mxCell id="u9Vryoz38K2hmvbxUxs4-43" value="" style="endArrow=none;html=1;rounded=0;entryX=0;entryY=0.5;entryDx=0;entryDy=0;labelBackgroundColor=none;strokeColor=#A8201A;fontColor=default;" edge="1" parent="1" source="u9Vryoz38K2hmvbxUxs4-41" target="u9Vryoz38K2hmvbxUxs4-36">
          <mxGeometry relative="1" as="geometry">
            <mxPoint x="220" y="380" as="sourcePoint" />
            <mxPoint x="405" y="379.5" as="targetPoint" />
          </mxGeometry>
        </mxCell>
        <mxCell id="u9Vryoz38K2hmvbxUxs4-44" value="N" style="resizable=0;html=1;whiteSpace=wrap;align=right;verticalAlign=bottom;labelBackgroundColor=none;fillColor=#FAE5C7;strokeColor=#0F8B8D;fontColor=#143642;" connectable="0" vertex="1" parent="u9Vryoz38K2hmvbxUxs4-43">
          <mxGeometry x="1" relative="1" as="geometry">
            <mxPoint x="-45" y="-9" as="offset" />
          </mxGeometry>
        </mxCell>
        <mxCell id="u9Vryoz38K2hmvbxUxs4-45" value="" style="endArrow=none;html=1;rounded=0;entryX=0;entryY=0.5;entryDx=0;entryDy=0;labelBackgroundColor=none;strokeColor=#A8201A;fontColor=default;" edge="1" parent="1" target="u9Vryoz38K2hmvbxUxs4-42">
          <mxGeometry relative="1" as="geometry">
            <mxPoint x="560" y="380" as="sourcePoint" />
            <mxPoint x="650" y="380" as="targetPoint" />
          </mxGeometry>
        </mxCell>
        <mxCell id="u9Vryoz38K2hmvbxUxs4-46" value="N" style="resizable=0;html=1;whiteSpace=wrap;align=right;verticalAlign=bottom;labelBackgroundColor=none;fillColor=#FAE5C7;strokeColor=#0F8B8D;fontColor=#143642;" connectable="0" vertex="1" parent="u9Vryoz38K2hmvbxUxs4-45">
          <mxGeometry x="1" relative="1" as="geometry">
            <mxPoint x="-20" as="offset" />
          </mxGeometry>
        </mxCell>
        <mxCell id="u9Vryoz38K2hmvbxUxs4-41" value="Quadra" style="rounded=1;arcSize=10;whiteSpace=wrap;html=1;align=center;labelBackgroundColor=none;fillColor=#FAE5C7;strokeColor=#0F8B8D;fontColor=#143642;" vertex="1" parent="1">
          <mxGeometry x="160" y="360" width="100" height="40" as="geometry" />
        </mxCell>
        <mxCell id="u9Vryoz38K2hmvbxUxs4-49" value="origem" style="shape=rhombus;perimeter=rhombusPerimeter;whiteSpace=wrap;html=1;align=center;labelBackgroundColor=none;fillColor=#FAE5C7;strokeColor=#0F8B8D;fontColor=#143642;" vertex="1" parent="1">
          <mxGeometry x="760" y="30" width="80" height="40" as="geometry" />
        </mxCell>
        <mxCell id="u9Vryoz38K2hmvbxUxs4-50" value="PaÃ­s" style="whiteSpace=wrap;html=1;align=center;labelBackgroundColor=none;fillColor=#FAE5C7;strokeColor=#0F8B8D;fontColor=#143642;" vertex="1" parent="1">
          <mxGeometry x="755" y="185" width="90" height="35" as="geometry" />
        </mxCell>
        <mxCell id="u9Vryoz38K2hmvbxUxs4-51" value="localizaÃ§Ã£o" style="shape=rhombus;perimeter=rhombusPerimeter;whiteSpace=wrap;html=1;align=center;labelBackgroundColor=none;fillColor=#FAE5C7;strokeColor=#0F8B8D;fontColor=#143642;" vertex="1" parent="1">
          <mxGeometry x="762.5" y="260" width="75" height="40" as="geometry" />
        </mxCell>
        <mxCell id="u9Vryoz38K2hmvbxUxs4-57" value="" style="endArrow=none;html=1;rounded=0;exitX=0.5;exitY=1;exitDx=0;exitDy=0;entryX=0.5;entryY=0;entryDx=0;entryDy=0;labelBackgroundColor=none;strokeColor=#A8201A;fontColor=default;" edge="1" parent="1" source="u9Vryoz38K2hmvbxUxs4-49" target="u9Vryoz38K2hmvbxUxs4-50">
          <mxGeometry relative="1" as="geometry">
            <mxPoint x="800" y="110" as="sourcePoint" />
            <mxPoint x="800" y="180" as="targetPoint" />
          </mxGeometry>
        </mxCell>
        <mxCell id="u9Vryoz38K2hmvbxUxs4-58" value="1" style="resizable=0;html=1;whiteSpace=wrap;align=right;verticalAlign=bottom;labelBackgroundColor=none;fillColor=#FAE5C7;strokeColor=#0F8B8D;fontColor=#143642;" connectable="0" vertex="1" parent="u9Vryoz38K2hmvbxUxs4-57">
          <mxGeometry x="1" relative="1" as="geometry">
            <mxPoint x="20" y="-30" as="offset" />
          </mxGeometry>
        </mxCell>
        <mxCell id="u9Vryoz38K2hmvbxUxs4-59" value="" style="shape=link;html=1;rounded=0;entryX=0;entryY=0.5;entryDx=0;entryDy=0;labelBackgroundColor=none;strokeColor=#A8201A;fontColor=default;" edge="1" parent="1" target="u9Vryoz38K2hmvbxUxs4-49">
          <mxGeometry relative="1" as="geometry">
            <mxPoint x="730" y="50" as="sourcePoint" />
            <mxPoint x="890" y="50" as="targetPoint" />
          </mxGeometry>
        </mxCell>
        <mxCell id="u9Vryoz38K2hmvbxUxs4-60" value="N" style="resizable=0;html=1;whiteSpace=wrap;align=right;verticalAlign=bottom;labelBackgroundColor=none;fillColor=#FAE5C7;strokeColor=#0F8B8D;fontColor=#143642;" connectable="0" vertex="1" parent="u9Vryoz38K2hmvbxUxs4-59">
          <mxGeometry x="1" relative="1" as="geometry">
            <mxPoint x="-10" as="offset" />
          </mxGeometry>
        </mxCell>
        <mxCell id="u9Vryoz38K2hmvbxUxs4-65" value="" style="endArrow=none;html=1;rounded=0;labelBackgroundColor=none;strokeColor=#A8201A;fontColor=default;" edge="1" parent="1">
          <mxGeometry relative="1" as="geometry">
            <mxPoint x="799.5" y="220" as="sourcePoint" />
            <mxPoint x="799.5" y="260" as="targetPoint" />
          </mxGeometry>
        </mxCell>
        <mxCell id="u9Vryoz38K2hmvbxUxs4-66" value="1" style="resizable=0;html=1;whiteSpace=wrap;align=right;verticalAlign=bottom;labelBackgroundColor=none;fillColor=#FAE5C7;strokeColor=#0F8B8D;fontColor=#143642;" connectable="0" vertex="1" parent="u9Vryoz38K2hmvbxUxs4-65">
          <mxGeometry x="1" relative="1" as="geometry">
            <mxPoint x="21" y="-10" as="offset" />
          </mxGeometry>
        </mxCell>
        <mxCell id="u9Vryoz38K2hmvbxUxs4-67" value="" style="shape=link;html=1;rounded=0;entryX=0.5;entryY=0;entryDx=0;entryDy=0;exitX=0.5;exitY=1;exitDx=0;exitDy=0;labelBackgroundColor=none;strokeColor=#A8201A;fontColor=default;" edge="1" parent="1" source="u9Vryoz38K2hmvbxUxs4-51" target="u9Vryoz38K2hmvbxUxs4-42">
          <mxGeometry relative="1" as="geometry">
            <mxPoint x="820" y="330" as="sourcePoint" />
            <mxPoint x="980" y="330" as="targetPoint" />
          </mxGeometry>
        </mxCell>
        <mxCell id="u9Vryoz38K2hmvbxUxs4-68" value="N" style="resizable=0;html=1;whiteSpace=wrap;align=right;verticalAlign=bottom;labelBackgroundColor=none;fillColor=#FAE5C7;strokeColor=#0F8B8D;fontColor=#143642;" connectable="0" vertex="1" parent="u9Vryoz38K2hmvbxUxs4-67">
          <mxGeometry x="1" relative="1" as="geometry">
            <mxPoint x="20" y="-20" as="offset" />
          </mxGeometry>
        </mxCell>
        <mxCell id="u9Vryoz38K2hmvbxUxs4-69" value="JID" style="ellipse;whiteSpace=wrap;html=1;align=center;fontStyle=4;labelBackgroundColor=none;fillColor=#FAE5C7;strokeColor=#0F8B8D;fontColor=#143642;" vertex="1" parent="1">
          <mxGeometry x="530" y="10" width="40" height="20" as="geometry" />
        </mxCell>
        <mxCell id="u9Vryoz38K2hmvbxUxs4-70" value="nome" style="ellipse;whiteSpace=wrap;html=1;align=center;labelBackgroundColor=none;fillColor=#FAE5C7;strokeColor=#0F8B8D;fontColor=#143642;" vertex="1" parent="1">
          <mxGeometry x="465.5" y="40" width="64" height="20" as="geometry" />
        </mxCell>
        <mxCell id="u9Vryoz38K2hmvbxUxs4-71" value="sexo" style="ellipse;whiteSpace=wrap;html=1;align=center;direction=south;labelBackgroundColor=none;fillColor=#FAE5C7;strokeColor=#0F8B8D;fontColor=#143642;" vertex="1" parent="1">
          <mxGeometry x="520" y="70" width="45" height="20" as="geometry" />
        </mxCell>
        <mxCell id="u9Vryoz38K2hmvbxUxs4-72" value="" style="endArrow=none;html=1;rounded=0;labelBackgroundColor=none;strokeColor=#A8201A;fontColor=default;" edge="1" parent="1">
          <mxGeometry relative="1" as="geometry">
            <mxPoint x="530" y="50" as="sourcePoint" />
            <mxPoint x="610" y="50" as="targetPoint" />
          </mxGeometry>
        </mxCell>
        <mxCell id="u9Vryoz38K2hmvbxUxs4-73" value="" style="endArrow=none;html=1;rounded=0;entryX=0;entryY=0.75;entryDx=0;entryDy=0;exitX=0;exitY=0;exitDx=0;exitDy=0;labelBackgroundColor=none;strokeColor=#A8201A;fontColor=default;" edge="1" parent="1" source="u9Vryoz38K2hmvbxUxs4-71" target="u9Vryoz38K2hmvbxUxs4-1">
          <mxGeometry relative="1" as="geometry">
            <mxPoint x="560" y="70" as="sourcePoint" />
            <mxPoint x="720" y="80" as="targetPoint" />
          </mxGeometry>
        </mxCell>
        <mxCell id="u9Vryoz38K2hmvbxUxs4-76" value="" style="endArrow=none;html=1;rounded=0;entryX=0;entryY=0.25;entryDx=0;entryDy=0;labelBackgroundColor=none;strokeColor=#A8201A;fontColor=default;" edge="1" parent="1" target="u9Vryoz38K2hmvbxUxs4-1">
          <mxGeometry relative="1" as="geometry">
            <mxPoint x="570" y="20" as="sourcePoint" />
            <mxPoint x="730" y="20" as="targetPoint" />
          </mxGeometry>
        </mxCell>
        <mxCell id="u9Vryoz38K2hmvbxUxs4-77" value="PID" style="ellipse;whiteSpace=wrap;html=1;align=center;fontStyle=4;labelBackgroundColor=none;fillColor=#FAE5C7;strokeColor=#0F8B8D;fontColor=#143642;" vertex="1" parent="1">
          <mxGeometry x="920" y="160" width="40" height="20" as="geometry" />
        </mxCell>
        <mxCell id="u9Vryoz38K2hmvbxUxs4-78" value="nome" style="ellipse;whiteSpace=wrap;html=1;align=center;labelBackgroundColor=none;fillColor=#FAE5C7;strokeColor=#0F8B8D;fontColor=#143642;" vertex="1" parent="1">
          <mxGeometry x="910" y="210" width="50" height="30" as="geometry" />
        </mxCell>
        <mxCell id="u9Vryoz38K2hmvbxUxs4-80" value="" style="endArrow=none;html=1;rounded=0;labelBackgroundColor=none;strokeColor=#A8201A;fontColor=default;" edge="1" parent="1" source="u9Vryoz38K2hmvbxUxs4-50">
          <mxGeometry relative="1" as="geometry">
            <mxPoint x="845" y="202.5" as="sourcePoint" />
            <mxPoint x="880" y="200" as="targetPoint" />
          </mxGeometry>
        </mxCell>
        <mxCell id="u9Vryoz38K2hmvbxUxs4-82" value="" style="endArrow=none;html=1;rounded=0;labelBackgroundColor=none;strokeColor=#A8201A;fontColor=default;" edge="1" parent="1">
          <mxGeometry relative="1" as="geometry">
            <mxPoint x="880" y="170" as="sourcePoint" />
            <mxPoint x="880" y="230" as="targetPoint" />
          </mxGeometry>
        </mxCell>
        <mxCell id="u9Vryoz38K2hmvbxUxs4-83" value="" style="endArrow=none;html=1;rounded=0;entryX=0;entryY=0.5;entryDx=0;entryDy=0;labelBackgroundColor=none;strokeColor=#A8201A;fontColor=default;" edge="1" parent="1" target="u9Vryoz38K2hmvbxUxs4-77">
          <mxGeometry relative="1" as="geometry">
            <mxPoint x="880" y="170" as="sourcePoint" />
            <mxPoint x="1010" y="170" as="targetPoint" />
          </mxGeometry>
        </mxCell>
        <mxCell id="u9Vryoz38K2hmvbxUxs4-84" value="" style="endArrow=none;html=1;rounded=0;labelBackgroundColor=none;strokeColor=#A8201A;fontColor=default;" edge="1" parent="1">
          <mxGeometry relative="1" as="geometry">
            <mxPoint x="880" y="230" as="sourcePoint" />
            <mxPoint x="910" y="230" as="targetPoint" />
          </mxGeometry>
        </mxCell>
        <mxCell id="u9Vryoz38K2hmvbxUxs4-87" value="" style="endArrow=none;html=1;rounded=0;strokeColor=#A8201A;fontColor=#143642;fillColor=#FAE5C7;" edge="1" parent="1">
          <mxGeometry relative="1" as="geometry">
            <mxPoint x="850" y="380" as="sourcePoint" />
            <mxPoint x="880" y="380" as="targetPoint" />
          </mxGeometry>
        </mxCell>
        <mxCell id="u9Vryoz38K2hmvbxUxs4-89" value="" style="endArrow=none;html=1;rounded=0;strokeColor=#A8201A;fontColor=#143642;fillColor=#FAE5C7;" edge="1" parent="1">
          <mxGeometry relative="1" as="geometry">
            <mxPoint x="880" y="360" as="sourcePoint" />
            <mxPoint x="920" y="360" as="targetPoint" />
          </mxGeometry>
        </mxCell>
        <mxCell id="u9Vryoz38K2hmvbxUxs4-90" value="" style="endArrow=none;html=1;rounded=0;strokeColor=#A8201A;fontColor=#143642;fillColor=#FAE5C7;" edge="1" parent="1">
          <mxGeometry relative="1" as="geometry">
            <mxPoint x="880" y="405" as="sourcePoint" />
            <mxPoint x="940" y="410" as="targetPoint" />
            <Array as="points">
              <mxPoint x="880" y="410" />
            </Array>
          </mxGeometry>
        </mxCell>
        <mxCell id="u9Vryoz38K2hmvbxUxs4-92" value="TID" style="ellipse;whiteSpace=wrap;html=1;align=center;fontStyle=4;strokeColor=#0F8B8D;fontColor=#143642;fillColor=#FAE5C7;" vertex="1" parent="1">
          <mxGeometry x="920" y="350" width="40" height="20" as="geometry" />
        </mxCell>
        <mxCell id="u9Vryoz38K2hmvbxUxs4-94" value="nome" style="ellipse;whiteSpace=wrap;html=1;align=center;strokeColor=#0F8B8D;fontColor=#143642;fillColor=#FAE5C7;" vertex="1" parent="1">
          <mxGeometry x="930" y="390" width="50" height="30" as="geometry" />
        </mxCell>
        <mxCell id="u9Vryoz38K2hmvbxUxs4-95" value="" style="endArrow=none;html=1;rounded=0;strokeColor=#A8201A;fontColor=#143642;fillColor=#FAE5C7;" edge="1" parent="1">
          <mxGeometry relative="1" as="geometry">
            <mxPoint x="880" y="360" as="sourcePoint" />
            <mxPoint x="880" y="410" as="targetPoint" />
          </mxGeometry>
        </mxCell>
        <mxCell id="u9Vryoz38K2hmvbxUxs4-97" value="QID" style="ellipse;whiteSpace=wrap;html=1;align=center;fontStyle=4;strokeColor=#0F8B8D;fontColor=#143642;fillColor=#FAE5C7;" vertex="1" parent="1">
          <mxGeometry x="145" y="430" width="40" height="20" as="geometry" />
        </mxCell>
        <mxCell id="u9Vryoz38K2hmvbxUxs4-98" value="nome" style="ellipse;whiteSpace=wrap;html=1;align=center;strokeColor=#0F8B8D;fontColor=#143642;fillColor=#FAE5C7;" vertex="1" parent="1">
          <mxGeometry x="185" y="460" width="50" height="30" as="geometry" />
        </mxCell>
        <mxCell id="u9Vryoz38K2hmvbxUxs4-99" value="piso" style="ellipse;whiteSpace=wrap;html=1;align=center;strokeColor=#0F8B8D;fontColor=#143642;fillColor=#FAE5C7;" vertex="1" parent="1">
          <mxGeometry x="240" y="430" width="60" height="20" as="geometry" />
        </mxCell>
        <mxCell id="u9Vryoz38K2hmvbxUxs4-100" value="" style="endArrow=none;html=1;rounded=0;strokeColor=#A8201A;fontColor=#143642;fillColor=#FAE5C7;" edge="1" parent="1" target="u9Vryoz38K2hmvbxUxs4-98">
          <mxGeometry relative="1" as="geometry">
            <mxPoint x="209.5" y="400" as="sourcePoint" />
            <mxPoint x="209.5" y="440" as="targetPoint" />
          </mxGeometry>
        </mxCell>
        <mxCell id="u9Vryoz38K2hmvbxUxs4-101" value="" style="endArrow=none;html=1;rounded=0;strokeColor=#A8201A;fontColor=#143642;fillColor=#FAE5C7;" edge="1" parent="1">
          <mxGeometry relative="1" as="geometry">
            <mxPoint x="230" y="400" as="sourcePoint" />
            <mxPoint x="270" y="430" as="targetPoint" />
          </mxGeometry>
        </mxCell>
        <mxCell id="u9Vryoz38K2hmvbxUxs4-102" value="" style="endArrow=none;html=1;rounded=0;strokeColor=#A8201A;fontColor=#143642;fillColor=#FAE5C7;exitX=0.5;exitY=0;exitDx=0;exitDy=0;" edge="1" parent="1" source="u9Vryoz38K2hmvbxUxs4-97">
          <mxGeometry relative="1" as="geometry">
            <mxPoint x="170" y="420" as="sourcePoint" />
            <mxPoint x="194" y="400" as="targetPoint" />
          </mxGeometry>
        </mxCell>
        <mxCell id="u9Vryoz38K2hmvbxUxs4-103" value="fase" style="ellipse;whiteSpace=wrap;html=1;align=center;strokeColor=#0F8B8D;fontColor=#143642;fillColor=#FAE5C7;" vertex="1" parent="1">
          <mxGeometry x="290" y="240" width="40" height="30" as="geometry" />
        </mxCell>
        <mxCell id="u9Vryoz38K2hmvbxUxs4-104" value="s1" style="ellipse;whiteSpace=wrap;html=1;align=center;strokeColor=#0F8B8D;fontColor=#143642;fillColor=#FAE5C7;" vertex="1" parent="1">
          <mxGeometry x="465.5" y="260" width="30" height="20" as="geometry" />
        </mxCell>
        <mxCell id="u9Vryoz38K2hmvbxUxs4-105" value="s2" style="ellipse;whiteSpace=wrap;html=1;align=center;strokeColor=#0F8B8D;fontColor=#143642;fillColor=#FAE5C7;" vertex="1" parent="1">
          <mxGeometry x="440" y="300" width="30" height="20" as="geometry" />
        </mxCell>
        <mxCell id="u9Vryoz38K2hmvbxUxs4-106" value="data" style="ellipse;whiteSpace=wrap;html=1;align=center;fontStyle=4;strokeColor=#0F8B8D;fontColor=#143642;fillColor=#FAE5C7;" vertex="1" parent="1">
          <mxGeometry x="280" y="280" width="40" height="20" as="geometry" />
        </mxCell>
        <mxCell id="u9Vryoz38K2hmvbxUxs4-108" value="fase" style="ellipse;whiteSpace=wrap;html=1;align=center;strokeColor=#0F8B8D;fontColor=#143642;fillColor=#FAE5C7;" vertex="1" parent="1">
          <mxGeometry x="650" y="240" width="40" height="20" as="geometry" />
        </mxCell>
        <mxCell id="u9Vryoz38K2hmvbxUxs4-109" value="data" style="ellipse;whiteSpace=wrap;html=1;align=center;fontStyle=4;strokeColor=#0F8B8D;fontColor=#143642;fillColor=#FAE5C7;" vertex="1" parent="1">
          <mxGeometry x="650" y="280" width="40" height="20" as="geometry" />
        </mxCell>
        <mxCell id="u9Vryoz38K2hmvbxUxs4-110" value="s1" style="ellipse;whiteSpace=wrap;html=1;align=center;strokeColor=#0F8B8D;fontColor=#143642;fillColor=#FAE5C7;" vertex="1" parent="1">
          <mxGeometry x="610" y="310" width="30" height="20" as="geometry" />
        </mxCell>
        <mxCell id="u9Vryoz38K2hmvbxUxs4-111" value="s2" style="ellipse;whiteSpace=wrap;html=1;align=center;strokeColor=#0F8B8D;fontColor=#143642;fillColor=#FAE5C7;" vertex="1" parent="1">
          <mxGeometry x="575" y="310" width="30" height="20" as="geometry" />
        </mxCell>
        <mxCell id="u9Vryoz38K2hmvbxUxs4-112" value="" style="endArrow=none;html=1;rounded=0;strokeColor=#A8201A;fontColor=#143642;fillColor=#FAE5C7;entryX=0.106;entryY=0.4;entryDx=0;entryDy=0;entryPerimeter=0;" edge="1" parent="1" target="u9Vryoz38K2hmvbxUxs4-23">
          <mxGeometry relative="1" as="geometry">
            <mxPoint x="330" y="260" as="sourcePoint" />
            <mxPoint x="360" y="280" as="targetPoint" />
          </mxGeometry>
        </mxCell>
        <mxCell id="u9Vryoz38K2hmvbxUxs4-113" value="" style="endArrow=none;html=1;rounded=0;strokeColor=#A8201A;fontColor=#143642;fillColor=#FAE5C7;exitX=1;exitY=0.5;exitDx=0;exitDy=0;" edge="1" parent="1" source="u9Vryoz38K2hmvbxUxs4-106" target="u9Vryoz38K2hmvbxUxs4-23">
          <mxGeometry relative="1" as="geometry">
            <mxPoint x="310" y="290" as="sourcePoint" />
            <mxPoint x="470" y="290" as="targetPoint" />
          </mxGeometry>
        </mxCell>
        <mxCell id="u9Vryoz38K2hmvbxUxs4-114" value="" style="endArrow=none;html=1;rounded=0;strokeColor=#A8201A;fontColor=#143642;fillColor=#FAE5C7;entryX=0;entryY=0.5;entryDx=0;entryDy=0;exitX=0.875;exitY=0.325;exitDx=0;exitDy=0;exitPerimeter=0;" edge="1" parent="1" source="u9Vryoz38K2hmvbxUxs4-23" target="u9Vryoz38K2hmvbxUxs4-104">
          <mxGeometry relative="1" as="geometry">
            <mxPoint x="440" y="280" as="sourcePoint" />
            <mxPoint x="590" y="280" as="targetPoint" />
          </mxGeometry>
        </mxCell>
        <mxCell id="u9Vryoz38K2hmvbxUxs4-115" value="" style="endArrow=none;html=1;rounded=0;strokeColor=#A8201A;fontColor=#143642;fillColor=#FAE5C7;exitX=1;exitY=1;exitDx=0;exitDy=0;" edge="1" parent="1" source="u9Vryoz38K2hmvbxUxs4-23">
          <mxGeometry relative="1" as="geometry">
            <mxPoint x="430" y="300" as="sourcePoint" />
            <mxPoint x="450" y="300" as="targetPoint" />
          </mxGeometry>
        </mxCell>
        <mxCell id="u9Vryoz38K2hmvbxUxs4-117" value="" style="endArrow=none;html=1;rounded=0;strokeColor=#A8201A;fontColor=#143642;fillColor=#FAE5C7;entryX=0;entryY=1;entryDx=0;entryDy=0;" edge="1" parent="1" target="u9Vryoz38K2hmvbxUxs4-108">
          <mxGeometry relative="1" as="geometry">
            <mxPoint x="620" y="270" as="sourcePoint" />
            <mxPoint x="650" y="260" as="targetPoint" />
          </mxGeometry>
        </mxCell>
        <mxCell id="u9Vryoz38K2hmvbxUxs4-118" value="" style="endArrow=none;html=1;rounded=0;strokeColor=#A8201A;fontColor=#143642;fillColor=#FAE5C7;entryX=0;entryY=0.5;entryDx=0;entryDy=0;exitX=0.82;exitY=0.725;exitDx=0;exitDy=0;exitPerimeter=0;" edge="1" parent="1" source="u9Vryoz38K2hmvbxUxs4-24" target="u9Vryoz38K2hmvbxUxs4-109">
          <mxGeometry relative="1" as="geometry">
            <mxPoint x="620" y="290" as="sourcePoint" />
            <mxPoint x="780" y="290" as="targetPoint" />
          </mxGeometry>
        </mxCell>
        <mxCell id="u9Vryoz38K2hmvbxUxs4-119" value="" style="endArrow=none;html=1;rounded=0;strokeColor=#A8201A;fontColor=#143642;fillColor=#FAE5C7;" edge="1" parent="1">
          <mxGeometry relative="1" as="geometry">
            <mxPoint x="610" y="290" as="sourcePoint" />
            <mxPoint x="620" y="310" as="targetPoint" />
          </mxGeometry>
        </mxCell>
        <mxCell id="u9Vryoz38K2hmvbxUxs4-120" value="" style="endArrow=none;html=1;rounded=0;strokeColor=#A8201A;fontColor=#143642;fillColor=#FAE5C7;" edge="1" parent="1">
          <mxGeometry relative="1" as="geometry">
            <mxPoint x="589.5" y="300" as="sourcePoint" />
            <mxPoint x="590" y="310" as="targetPoint" />
          </mxGeometry>
        </mxCell>
      </root>
    </mxGraphModel>
  </diagram>
</mxfile>
